<mxfile host="app.diagrams.net" modified="2023-11-14T08:40:28.115Z" agent="Mozilla/5.0 (X11; Linux x86_64) AppleWebKit/537.36 (KHTML, like Gecko) Chrome/118.0.0.0 Safari/537.36" version="22.1.0" etag="Ivso9ihjB1XhIUu5E7i1" type="github">
  <diagram name="Page-1" id="zwZDI7igNElrVdoP38LU">
    <mxGraphModel>
      <root>
        <mxCell id="0" />
        <mxCell id="1" parent="0" />
      </root>
    </mxGraphModel>
  </diagram>
</mxfile>
